<svg width="413" height="92" viewBox="0 0 413 92" fill="none" xmlns="http://www.w3.org/2000/svg">
<path d="M205.5 40.0999C197.9 36.6999 185.6 47.4999 180.6 56.5999C181.5 54.1999 185 43.2999 177.8 40.0999C170.3 36.6999 158 47.4999 153 56.5999C153 56.5999 156.8 48.3999 154 42.5999C151.9 38.5999 146.7 38.9 145.2 39.4C145.2 39.4 146.2 44.1999 138 61.0999C133 71.2999 128.8 86.1 139.4 88.9C139.4 88.9 141.3 82.4 145.5 74.3C148 69.7 151.2 64.6 155.2 59.9C166.2 47.2 172.9 45.3999 167.2 58.0999C161.3 70.7999 158.3 85.5 170.9 88.9C171.7 81.9 174 70.3 182.8 59.9C193.7 47.1 200.4 45.2 194.6 57.9C188.8 70.6 186 85.5 198.6 88.9C200.6 75.1 208.1 57 208.1 57C208.1 57 213.5 43.6999 205.5 40.0999Z" fill="#FEFEFE"/>
<path d="M76.6 15.8C59.5 5.59999 3.6 12.7 0.5 14.5C0.5 16.9 5.9 25.1 21.6 23.4C26.4 22.9 30.8 22.5 34.8 22.2H35C24.2 33 8.7 56.7 7.2 74.7C6 88.9 18.9 89.7 18.9 89.7C18.9 57.6 45.7 27.3 51.1 21.2C70.6 20.3 79 22.5 79.7 25C81.6 23.1 81.8 18.9 76.6 15.8Z" fill="#FEFEFE"/>
<path fill-rule="evenodd" clip-rule="evenodd" d="M123.4 88.7C110.5 88.3 112.9 76.5 112.9 76.5C108.9 86.8 98.7 90.4 91.8 86.9C82.7 82.4 83 65.6 92.2 52.9C99.7 42.5 109.6 38.4 118.7 39.2C128.5 40 131.8 44.8 131.8 44.8C122.3 68 122.4 81.4 123.4 88.7ZM120.2 47.8C108.8 46.3 97.2 62.6 97.8 72.7C98.1 79.2 101.9 79.3 107.8 72.5C113 66.7 117.1 54.3 120.2 47.8Z" fill="#FEFEFE"/>
<path fill-rule="evenodd" clip-rule="evenodd" d="M52.7 68.1C50.4 71.9 51.5 75.3 51.5 75.3C55.8 85.1 75.9 69.5 75.9 69.5C82.3 76 66.7 88.9 53.7 88.9C44.3 88.9 37.2 83.6 37.7 72.6C38.3 61.3 45.7 50.3 56 43.5C69.4 34.7 78.2 38.5 80.9 42.9C84.5 48.6 82.1 58.2 75.2 63.2C66.1 69.8 52.7 68.1 52.7 68.1ZM55.5 61.2C55.5 61.2 61 62 67 57.5C73 52.9 72.9 43.5 66.8 47.6C60.2 51.9 55.5 61.2 55.5 61.2Z" fill="#FEFEFE"/>
<path d="M249.3 61C267.5 32.1 259.1 24.4 259.1 24.3L256.9 22.2L259.7 23.3C280.3 31.2 267.6 52.2 267.2 52.9C259.7 68 252.7 77 246.8 82.5C240.8 88 235.9 89.8 232.6 90.4C231.933 90.5334 231.3 90.6667 230.7 90.8C229.967 90.9333 229.267 91 228.6 91C228.6 91 222.8 91.2 219.1 88.1C219 87.9 217.7 86.9 217.8 85.8V84.9L218.6 85.3C218.6 85.3 220.8 86.2 223.3 85.7C223.3 85.7 226.5 85.1 228.1 84.6C231.4 82.9 235 79.7 238.6 75.7C242.5 71.4 246.3 66.2 249.3 61Z" fill="#00ADEE"/>
<path d="M325.2 29.8C324.6 39.1 320.7 50.9 317.1 61.9C313.4 73.1 310.1 83.4 310.9 88.7L311 89.3L310.5 89.6C309.433 90.2 308.4 90.6334 307.4 90.9C306.4 91.1667 305.433 91.2667 304.5 91.2C302.6 91.1 301.1 90.2 300 88.5C299.1 86.9 298.6 84.6 298.8 81.7C298.8 81.6333 298.833 81.5667 298.9 81.5C299.2 77.4 301.6 70.1 304.5 61.6C308.5 49.6 313.4 34.9 314.5 22.9L314.6 22L315.6 22.1C318.1 22.4 320.6 23.4 322.4 24.8C324.2 26.2 325.3 28 325.2 29.8Z" fill="#FEFEFE"/>
<path fill-rule="evenodd" clip-rule="evenodd" d="M338 68.1C335.7 71.9 336.8 75.3 336.8 75.3C341.2 85.1 361.3 69.5 361.3 69.5C367.7 76 352 88.9 339.1 88.9C329.6 88.9 322.5 83.6 323 72.6C323.6 61.3 331 50.3 341.3 43.5C354.8 34.7 363.5 38.5 366.3 42.9C369.9 48.6 367.4 58.2 360.6 63.2C351.5 69.8 338 68.1 338 68.1ZM340.8 61.2C340.8 61.2 346.4 62 352.3 57.5C358.3 52.9 358.2 43.5 352.1 47.6C345.6 51.9 340.8 61.2 340.8 61.2Z" fill="#FEFEFE"/>
<path d="M373.1 71.1C370.1 78.5 369.7 86.3 378.1 88.6C379.4 82.1 381.3 76.5 383.6 71.6C386.6 75.8 391 81.1 394.4 83.7C398.7 87 402.9 88.1 405.5 87.6C411.4 86.6 412.1 80.6 412.1 80.6C405.3 78.4 396.8 72 390 61C397.1 51.9 405.8 47.6 412.9 47.2C412.9 47.2 412.6 41.2 406.8 39.8C404.3 39.1 400 39.8 395.5 42.8C392.5 44.8 388.6 48.6 385.4 52.2C383.4 47.6 381.7 42.4 380.4 36.7C371.9 38.3 371.6 46.2 374.1 53.7C375 56.3 376.2 59.3 377.8 62.3C375.8 65.3 374.2 68.4 373.1 71.1Z" fill="#FEFEFE"/>
<path fill-rule="evenodd" clip-rule="evenodd" d="M295.1 46.2C292.1 47.5 289.1 49 286 50.5C279.8 53.6 273.2 56.8 265.4 59.7H265.3C264.6 60.2 264 60.6 263.7 61.2C263.5 61.6 263.433 62 263.5 62.4C263.5 62.8667 263.7 63.2666 264.1 63.6C264.433 63.9333 264.967 64.1667 265.7 64.3C269.3 64.3667 272.867 64.4 276.4 64.4C277.267 64.3334 277.967 64.3667 278.5 64.5C278.833 64.5667 279.067 64.7 279.2 64.9L279.5 65.4L280.1 65.3C281.2 65.2 282.5 64.9 283.8 64.4C288 62.8 293.1 59.4 297.1 55.5C301.2 51.6 304.1 47.2 303.8 43.6C303.733 43.1333 303.633 42.6667 303.5 42.2L302.8 40.3L301.8 42.1C300.9 43.7 298.3 44.8 296.5 45.6C295.967 45.8 295.5 46 295.1 46.2ZM311.6 5.09998C311 2.59998 309.2 1.60001 309.2 1.60001L307.7 0.700012L307.8 2.39999C307.8 3.09999 307.6 3.5 307.6 3.5V3.60001C306.9 5.90001 304.9 8.40002 301.9 10.9C298.8 13.4 294.4 16 289 18.6L288.4 18.9L287.6 19.2C282.6 21.3 265.4 28.4 259.1 31.9C257.2 32.8 255.5 33.7 253.8 34.7C252.1 35.7 250.5 36.8 248.7 38C247.6 38.7 246.3 39.7 245.1 40.7C243.3 42.1 241.8 43.6 240.9 44.4C240.9 44.4 240.5 44.7 240.3 45C240.233 45 240.2 45.0333 240.2 45.1C239.4 45.9 238.7 46.9 238.2 48C237.6 49.1 237.2 50.3 237.2 51.8V52V52.2C237.2 52.6 237.267 53 237.4 53.4C237.533 53.7334 237.7 54.1 237.9 54.5C237.967 54.7 238.067 54.9 238.2 55.1C238.333 55.3 238.5 55.5 238.7 55.7C241.8 59.5 249.2 62.7 249.2 62.7L250 63.1L252.7 58.4L251.8 58C246.6 55.4 244.5 51.6 244 50.5C244.067 50.3 244.167 50.1 244.3 49.9C244.5 49.6334 244.733 49.3333 245 49C250.5 43.4 265 39.5 274.1 37.1C275.767 36.6333 277.233 36.2 278.5 35.8V35.9L279.8 35.6C281.133 35.2666 282.467 34.9 283.8 34.5C285.067 34.1 286.4 33.6333 287.8 33.1C289.133 32.6333 290.467 32.1 291.8 31.5C293.2 30.9 294.6 30.2333 296 29.5C299.2 27.8 302.1 26 304.4 24C306.5 22.2 308.2 20.3 309.2 18.4C309.2 18.3334 309.233 18.2667 309.3 18.2C310.5 16 311.3 13.8 311.7 11.7C312 9.60001 312 7.50002 311.6 5.40002V5.09998Z" fill="#FEFEFE"/>
</svg>
