<svg width="492" height="214" viewBox="0 0 492 214" fill="none" xmlns="http://www.w3.org/2000/svg">
<path d="M420.7 154.4L396.4 119.6L372.1 154.4H310L365.4 75.3L348.6 51.4L276.5 154.4H14.9L51.3 102.5L14.7 50.3H74.5L39.3 0H374.7L396.4 31L418.1 0H480.1L427.4 75.3L482.8 154.4H420.7Z" fill="#00ADEE"/>
<path d="M418.9 75.3L466.7 7H421.7L396.4 43.2L371.1 7H326.1H274.6L249.4 43.1H345.9L348.6 39.2L373.9 75.3L323.4 147.4H368.4L396.4 107.4L424.4 147.4H469.4L418.9 75.3Z" fill="white"/>
<path d="M88.8 10L57.1 13.3L59.1 16.1H84.6L61.1 18.9L63.4 22.2H80.3L64.9 24.3L78 43.1H161.2L186.4 7H52.8L54.9 10H88.8Z" fill="white"/>
<path d="M131.7 93.3L156.9 57.3H28.2L30.3 60.3H64.1L32.5 63.5L34.5 66.4H59.9L36.5 69.1L38.8 72.5H55.6L40.3 74.5L53.4 93.3H66.2L28.4 147.4H73.4L111.2 93.3H131.7Z" fill="white"/>
<path d="M239.5 57.3L214.2 93.3H310.7L335.9 57.3H239.5Z" fill="white"/>
<path d="M180.1 111.3L253.1 7H208.1L109.8 147.4H272.8L298.1 111.3H180.1Z" fill="white"/>
<path d="M4.5 180.9H24.1L22.9 189.2H12L11.2 194.7H21.4L20.3 202.4H10.1L8.60001 212.3H0L4.5 180.9Z" fill="black"/>
<path d="M28.3 180.9H36.9L33.6 204H45.2L44 212.3H23.8L28.3 180.9Z" fill="black"/>
<path d="M51.7 180.9H72L70.8 189.2H59.1L58.5 192.8H69.2L68.3 200.2H57.5L56.9 204H68.6L67.5 212.3H47.2L51.7 180.9Z" fill="black"/>
<path d="M91 197L98.2 212.3H88.9L85 203.3L79.2 212.3H69.4L80.9 196.2L73.5 180.9H82.9L86.8 190.1L92.7 180.9H102L91 197Z" fill="black"/>
<path d="M131 190.8C128.7 189.1 125.8 188.1 123.6 188.1C121.8 188.1 120.5 188.8 120.5 190C120.5 191 121.3 191.5 124.5 193.4C128.7 195.9 131.4 198.4 131.4 203C131.4 208.6 127.3 213 119.6 213C114.7 213 111.5 211.1 109.3 209.2L110.5 200.5C112.7 202.8 116.4 205.1 119.5 205.1C121.3 205.1 122.7 204.4 122.7 203.1C122.7 201.9 121.9 201.3 118.6 199.4C114.9 197.3 111.9 194.8 111.9 190.2C111.9 184.7 116.1 180.2 123.5 180.2C127.3 180.2 130.3 181.5 132.4 182.8L131 190.8Z" fill="black"/>
<path fill-rule="evenodd" clip-rule="evenodd" d="M138.4 180.9H147.3C155.6 180.9 160.2 186 160.2 192.3C160.2 200.4 153.9 204.8 145.2 204.8H143.6L142.5 212.3H133.9L138.4 180.9ZM151.4 192.6C151.4 190.3 149.5 189.2 147.3 189.2H145.9L144.7 196.7H146.4C149.4 196.7 151.4 194.9 151.4 192.6Z" fill="black"/>
<path fill-rule="evenodd" clip-rule="evenodd" d="M192.9 194.9C192.9 204.6 185.6 213.1 175.8 213.1C167.5 213.1 161.4 207 161.4 198.1C161.4 188.3 168.8 180.1 178.6 180.1C186.9 180.1 192.9 186 192.9 194.9ZM170.1 197.7C170.1 202 172.7 204.8 176.4 204.8C181.1 204.8 184.3 200.4 184.3 195.6C184.3 191.3 181.7 188.4 178 188.4C173.3 188.4 170.1 192.9 170.1 197.7Z" fill="black"/>
<path fill-rule="evenodd" clip-rule="evenodd" d="M212.9 201.3L219.2 212.3H209.3L204.7 202.4H204.4L202.9 212.3H194.3L198.8 180.9H209C216.3 180.9 220.3 184.7 220.3 190.6C220.3 195.5 217.5 199.5 212.9 201.3ZM206.2 189.2L205.3 195.7H206.6C209.5 195.7 211.5 194.5 211.5 192.1C211.5 190.1 210.1 189.2 207.4 189.2H206.2Z" fill="black"/>
<path d="M230.8 189.2H222.6L223.8 180.9H248.6L247.4 189.2H239.4L236.1 212.3H227.4L230.8 189.2Z" fill="black"/>
<path d="M268.9 190.8C266.6 189.1 263.7 188.1 261.5 188.1C259.7 188.1 258.4 188.8 258.4 190C258.4 191 259.1 191.5 262.4 193.4C266.6 195.9 269.2 198.4 269.2 203C269.2 208.6 265.1 213 257.5 213C252.6 213 249.4 211.1 247.1 209.2L248.4 200.5C250.6 202.8 254.2 205.1 257.4 205.1C259.2 205.1 260.6 204.4 260.6 203.1C260.6 201.9 259.8 201.3 256.5 199.4C252.8 197.3 249.7 194.8 249.7 190.2C249.7 184.7 254 180.2 261.4 180.2C265.2 180.2 268.1 181.5 270.2 182.8L268.9 190.8Z" fill="black"/>
<path fill-rule="evenodd" clip-rule="evenodd" d="M299.1 206.2H289L286.1 212.3H276.8L292.7 180.9H302.8L308.7 212.3H300L299.1 206.2ZM298 198.8L296.6 190.2L292.5 198.8H298Z" fill="black"/>
<path d="M335.2 191.2C333.2 189.6 330.7 188.6 328.1 188.6C322.6 188.6 319.1 192.6 319.1 197.2C319.1 201.2 321.7 204.8 326.2 204.8C328.6 204.8 331.2 203.8 333.9 201.9L332.6 210.6C330.2 212.1 327.2 213.1 324 213.1C316 213.1 310.5 207 310.5 198.3C310.5 188.5 317.7 180.1 327.8 180.1C331.8 180.1 334.6 181.4 336.5 182.7L335.2 191.2Z" fill="black"/>
<path fill-rule="evenodd" clip-rule="evenodd" d="M355.8 206.2H345.7L342.8 212.3H333.5L349.3 180.9H359.4L365.4 212.3H356.7L355.8 206.2ZM354.6 198.8L353.3 190.2L349.2 198.8H354.6Z" fill="black"/>
<path fill-rule="evenodd" clip-rule="evenodd" d="M372.5 180.9H381.2C390.6 180.9 396.6 186.8 396.6 195.4C396.6 204.3 390.2 212.3 377.4 212.3H368L372.5 180.9ZM387.9 195.8C387.9 191.5 385 189.2 381 189.2H379.9L377.7 204H378.7C384.4 204 387.9 200.6 387.9 195.8Z" fill="black"/>
<path d="M402.5 180.9H422.7L421.6 189.2H409.9L409.3 192.8H420L419 200.2H408.3L407.6 204H419.4L418.2 212.3H398L402.5 180.9Z" fill="black"/>
<path d="M458.4 212.3H450L450.7 194.1L443 212.3H436.4L433.9 194L429.5 212.3H421.2L429.7 180.9H439.1L441.5 199.2L449 180.9H458.4V212.3Z" fill="black"/>
<path d="M492 180.9L478 200.7L476.4 212.3H467.8L469.5 200.3L461.1 180.9H470.4L474.7 192.4L482.3 180.9H492Z" fill="black"/>
</svg>
