<svg width="17" height="14" viewBox="0 0 17 14" fill="none" xmlns="http://www.w3.org/2000/svg">
<path d="M14.5774 14L13.7468 10.8446L12.9162 14H10.7936L12.6872 6.82772L12.113 4.66062L9.64853 14H0.706849L1.95103 9.29404L0.700012 4.56088H2.74402L1.54086 0H13.0051L13.7468 2.81088L14.4885 0H16.6077L14.8064 6.82772L16.7 14H14.5774Z" fill="#00ADEE"/>
<path d="M14.5159 6.82771L16.1497 0.634705H14.6116L13.7468 3.91709L12.882 0.634705H11.3439H9.58358L8.72223 3.90802H12.0207L12.113 3.55439L12.9777 6.82771L11.2516 13.3653H12.7897L13.7468 9.73833L14.7039 13.3653H16.242L14.5159 6.82771Z" fill="black"/>
<path d="M3.23276 0.906725L2.14924 1.20595L2.2176 1.45984H3.0892L2.28596 1.71372L2.36457 2.01294H2.94223L2.41585 2.20336L2.86361 3.90802H5.70745L6.5688 0.634705H2.00226L2.07404 0.906725H3.23276Z" fill="black"/>
<path d="M4.69914 8.45985L5.5605 5.1956H1.16144L1.23322 5.46762H2.38853L1.30841 5.75778L1.37678 6.02074H2.24497L1.44514 6.26555L1.52375 6.57384H2.09799L1.57503 6.75519L2.02279 8.45985H2.46031L1.16827 13.3653H2.70641L3.99844 8.45985H4.69914Z" fill="black"/>
<path d="M8.38382 5.1956L7.51904 8.45985H10.8175L11.6788 5.1956H8.38382Z" fill="black"/>
<path d="M6.35347 10.092L8.84866 0.634705H7.31053L3.95056 13.3653H9.52202L10.3868 10.092H6.35347Z" fill="black"/>
</svg>
