<svg width="439" height="115" viewBox="0 0 439 115" fill="none" xmlns="http://www.w3.org/2000/svg">
<path d="M48.5 44C47.9667 45.4 47.8333 46.3667 48.1 46.9C48.3667 47.3667 49.0333 47.6 50.1 47.6H67.9L61.2 58.7H36.4C33.9333 58.7 32.3333 58.1333 31.6 57C30.8 55.8667 30.8667 54.0667 31.8 51.6L36.2 39.1L36.3 38.3C35.0333 37.8333 33.9 37.4333 32.9 37.1C31.9667 36.7 30.7333 36.3333 29.2 36C29 36.1333 28.6 36.2 28 36.2C27.4 36.2667 26.9333 36.3 26.6 36.3C26 36.3 25.3333 36.2333 24.6 36.1C23.8 35.9667 23.1 35.8 22.5 35.6C21.8333 35.4 21.3 35.2 20.9 35C20.5 34.7333 20.3333 34.4667 20.4 34.2C20.9333 34.1333 21.4333 34.0333 21.9 33.9C22.4333 33.7 22.9 33.5333 23.3 33.4C23.7667 33.2 24.1667 33.0333 24.5 32.9C24.7667 32.7 24.9333 32.5667 25 32.5C25.0667 32.3667 24.6 32.3 23.6 32.3C23.1333 32.3 22.6 32.3 22 32.3C21.4 32.3 20.7333 32.2667 20 32.2C19.4667 32.2 18.8667 32.1 18.2 31.9C17.5333 31.7 16.8667 31.4 16.2 31C15.5333 30.5333 14.9 30 14.3 29.4C13.7 28.8 13.2333 28.1 12.9 27.3C13.6333 27.3667 14.5667 27.4667 15.7 27.6C16.7667 27.6667 17.7667 27.7 18.7 27.7L20.4 27.5C19.6 27.2333 18.5 26.7667 17.1 26.1C15.6333 25.4333 14.1667 24.6333 12.7 23.7C11.2333 22.8333 9.86667 21.9 8.6 20.9C7.4 19.9 6.63334 18.9 6.3 17.9L6.6 18C7.33333 18.0667 8.1 18.1667 8.9 18.3C9.76667 18.3667 10.9333 18.4 12.4 18.4H14.3C14.7667 18.4 15.0333 18.3667 15.1 18.3C13.1 17.3 11.3333 16.2 9.8 15C8.26667 13.8 6.9 12.4667 5.7 11C4.5 9.53333 3.43333 7.90001 2.5 6.10001C1.63333 4.30001 0.8 2.30001 0 0.100006C3.13333 1.36667 6.43333 2.59999 9.9 3.79999C13.4333 4.99999 17.1333 6.06667 21 7C24.8 7.86667 28.8333 8.60001 33.1 9.20001C37.3667 9.73335 41.8 10 46.4 10H74.2C76.6667 10 78.2333 10.5667 78.9 11.7C79.6333 12.8333 79.5333 14.6667 78.6 17.2L75.2 27H61.2L62 24.7C62.4667 23.2333 62.5667 22.2667 62.3 21.8C62.0333 21.3333 61.4 21.1 60.4 21.1H59.5C58.4333 21.1 57.6 21.3667 57 21.9C56.3333 22.3667 55.7667 23.3 55.3 24.7L48.5 44Z" fill="#FEFEFE"/>
<path d="M89.5 58.7L96.2 39.9H88.4L81.7 58.7H67.7L85 10H99L92.3 29H100.1L106.8 10H120.8L103.5 58.7H89.5Z" fill="#FEFEFE"/>
<path d="M153.7 10L148.7 58.7H135L138.7 25.7L126.3 47.6H133.9L127.3 58.7H106.4L134.1 10H153.7Z" fill="#FEFEFE"/>
<path d="M169.5 47.6H184.7L178.1 58.7H151.6L168.8 10H182.8L169.5 47.6Z" fill="#FEFEFE"/>
<path d="M201.5 47.6H216.7L210.1 58.7H183.6L200.8 10H214.8L201.5 47.6Z" fill="#FEFEFE"/>
<path d="M215.6 58.7L232.8 10H264.9L258.3 21.1H243L240.2 29H255.3L248.8 39.9H236.3L233.5 47.6H251.6L244.9 58.7H215.6Z" fill="#FEFEFE"/>
<path d="M286.3 58.7H276.2L271 40.5L264.5 58.7H250.5L267.8 10H277.9L283.1 28.2L289.6 10H303.6L286.3 58.7Z" fill="#FEFEFE"/>
<path d="M335.8 28.7L327.7 51.6C326.767 54.0667 325.567 55.8667 324.1 57C322.567 58.1333 320.567 58.7 318.1 58.7H297.3C294.833 58.7 293.2 58.1333 292.4 57C291.667 55.8667 291.767 54.0667 292.7 51.6L304.8 17.2C305.733 14.6667 306.967 12.8333 308.5 11.7C310.033 10.5667 312.033 10 314.5 10H342.4L335.7 21.1H320.4C319.333 21.1 318.5 21.3667 317.9 21.9C317.233 22.3667 316.667 23.3 316.2 24.7L309.3 44C308.833 45.4 308.733 46.3667 309 46.9C309.267 47.3667 309.933 47.6 311 47.6H312.5C313.567 47.6 314.4 47.3667 315 46.9C315.667 46.4333 316.233 45.5 316.7 44.1L318.3 39.8H313.7L320.4 28.7H335.8Z" fill="#FEFEFE"/>
<path d="M329 58.7L346.2 10H378.3L371.7 21.1H356.3L353.5 29H368.7L362.1 39.9H349.6L346.9 47.6H364.9L358.3 58.7H329Z" fill="#FEFEFE"/>
<path fill-rule="evenodd" clip-rule="evenodd" d="M148.1 114.9C146.9 114.9 146.1 114.6 145.7 114C145.367 113.467 145.4 112.6 145.8 111.4L151.8 94.6C152.2 93.4 152.767 92.5 153.5 91.9C154.3 91.3666 155.3 91.1 156.5 91.1H167C168.2 91.1 168.967 91.3666 169.3 91.9C169.633 92.5 169.6 93.4 169.2 94.6L163.3 111.4C162.833 112.6 162.233 113.467 161.5 114C160.767 114.6 159.8 114.9 158.6 114.9H148.1ZM154 107.7C153.733 108.367 153.667 108.833 153.8 109.1C153.933 109.3 154.267 109.4 154.8 109.4H155.7C156.233 109.4 156.667 109.3 157 109.1C157.267 108.833 157.533 108.367 157.8 107.7L161.1 98.3C161.367 97.5666 161.433 97.1 161.3 96.9C161.167 96.6333 160.833 96.5 160.3 96.5H159.4C158.867 96.5 158.467 96.6333 158.2 96.9C157.867 97.1 157.567 97.5666 157.3 98.3L154 107.7Z" fill="#FEFEFE"/>
<path d="M181.3 114.9H176.4L173.8 106L170.7 114.9H163.9L172.3 91.1H177.2L179.8 100L182.9 91.1H189.7L181.3 114.9Z" fill="#FEFEFE"/>
<path d="M183.2 114.9L191.6 91.1H207.2L204 96.5H196.5L195.1 100.3H202.5L199.3 105.7H193.2L191.9 109.4H200.7L197.5 114.9H183.2Z" fill="#FEFEFE"/>
<path d="M214.5 88.1L212.9 92.4L209.3 95.3L210.3 92.4H208.9L210.4 88.1H214.5Z" fill="#FEFEFE"/>
<path d="M221.8 96.5C221.333 96.5 220.967 96.6666 220.7 97C220.367 97.2666 220.1 97.7 219.9 98.3V98.5C219.7 99.0333 219.6 99.4 219.6 99.6C219.6 99.8666 219.7 100.033 219.9 100.1C220.033 100.167 220.3 100.2 220.7 100.2H225.7C226.9 100.2 227.667 100.5 228 101.1C228.333 101.633 228.3 102.5 227.9 103.7L225.2 111.4C224.733 112.6 224.133 113.467 223.4 114C222.667 114.6 221.7 114.9 220.5 114.9H208.3L209 109.4H217.6C218.133 109.4 218.533 109.3 218.8 109.1C219.133 108.833 219.433 108.367 219.7 107.7L219.8 107.4C220 106.867 220.067 106.467 220 106.2C219.933 105.867 219.733 105.667 219.4 105.6H214C212.8 105.6 212 105.333 211.6 104.8C211.267 104.267 211.3 103.4 211.7 102.2L214.4 94.6C215.133 92.5333 216.433 91.3666 218.3 91.1H232.3L229.1 96.5H221.8Z" fill="#FEFEFE"/>
<path d="M80.2 114.9L88.6 91.1H104.3L101 96.5H93.6L92.2 100.3H99.6L96.4 105.7H90.3L87.1 114.9H80.2Z" fill="#FEFEFE"/>
<path fill-rule="evenodd" clip-rule="evenodd" d="M100.7 114.9C99.5 114.9 98.7333 114.6 98.4 114C98.0667 113.467 98.1 112.6 98.5 111.4L104.4 94.6C104.867 93.4 105.467 92.5 106.2 91.9C106.933 91.3666 107.9 91.1 109.1 91.1H119.7C120.9 91.1 121.667 91.3666 122 91.9C122.333 92.5 122.3 93.4 121.9 94.6L115.9 111.4C115.5 112.6 114.933 113.467 114.2 114C113.467 114.6 112.5 114.9 111.3 114.9H100.7ZM106.6 107.7C106.333 108.367 106.267 108.833 106.4 109.1C106.533 109.3 106.867 109.4 107.4 109.4H108.3C108.833 109.4 109.233 109.3 109.5 109.1C109.833 108.833 110.133 108.367 110.4 107.7L113.7 98.3C113.9 97.5666 113.967 97.1 113.9 96.9C113.767 96.6333 113.433 96.5 112.9 96.5H112C111.467 96.5 111.033 96.6333 110.7 96.9C110.433 97.1 110.167 97.5666 109.9 98.3L106.6 107.7Z" fill="#FEFEFE"/>
<path fill-rule="evenodd" clip-rule="evenodd" d="M125.8 91.1H139.7C140.9 91.1 141.667 91.3666 142 91.9C142.333 92.5 142.3 93.4 141.9 94.6L138.8 103.4C138.4 104.533 137.833 105.4 137.1 106C136.367 106.6 135.4 106.9 134.2 106.9L135 114.9H128.2L127.1 106.8L124.2 114.9H117.4L123.9 96.5H122.6L125.8 91.1ZM130.8 96.5L129 101.5H131.3C131.767 101.5 132.167 101.367 132.5 101.1C132.767 100.9 133.033 100.433 133.3 99.7L133.8 98.3C134.067 97.6333 134.133 97.1666 134 96.9C133.867 96.6333 133.533 96.5 133 96.5H130.8Z" fill="#FEFEFE"/>
<path fill-rule="evenodd" clip-rule="evenodd" d="M278.7 72.5C280.833 72.5 282.2 73 282.8 74C283.4 75 283.333 76.5667 282.6 78.7L272 108.6C271.2 110.8 270.167 112.4 268.9 113.4C267.567 114.4 265.833 114.9 263.7 114.9H238.8L250.4 82.1H248.1L253.7 72.5H278.7ZM258.5 105.2C259.433 105.2 260.167 104.967 260.7 104.5C261.233 104.1 261.733 103.267 262.2 102L268.1 85.3C268.5 84.0333 268.6 83.2 268.4 82.8C268.2 82.3333 267.633 82.1 266.7 82.1H262.6L254.4 105.2H258.5Z" fill="#FEFEFE"/>
<path fill-rule="evenodd" clip-rule="evenodd" d="M289.6 72.5H314.5C316.633 72.5 318 73 318.6 74C319.2 75 319.1 76.5667 318.3 78.7L312.8 94.4C312.067 96.4667 311.067 98.0333 309.8 99.1C308.467 100.1 306.733 100.6 304.6 100.6L306.1 114.9H293.9L291.9 100.5L286.8 114.9H274.7L286.3 82.1H283.9L289.6 72.5ZM298.5 82.2L295.4 91H299.4C300.267 91 300.967 90.8 301.5 90.4C302.033 89.9333 302.533 89.1 303 87.9L303.9 85.3C304.367 84.1 304.467 83.2667 304.2 82.8C304 82.4 303.433 82.2 302.5 82.2H298.5Z" fill="#FEFEFE"/>
<path d="M308.9 114.9L323.9 72.5H351.8L346 82.1H332.7L330.2 89H343.4L337.7 98.5H326.9L324.5 105.2H340.1L334.4 114.9H308.9Z" fill="#FEFEFE"/>
<path d="M379.5 72.5L375.2 114.9H363.3L366.5 86.1L355.7 105.2H362.4L356.6 114.9H338.4L362.6 72.5H379.5Z" fill="#FEFEFE"/>
<path d="M401.4 114.9H399.5L396.5 96.1L389.9 114.9H377.7L392.7 72.5H405.4L408.6 91.8L425.4 72.5H438.1L423.1 114.9H411L417.6 96.1L401.4 114.9Z" fill="#FEFEFE"/>
</svg>
